<?xml version="1.0" encoding="utf-8"?>
<!-- Generator: Adobe Illustrator 25.0.0, SVG Export Plug-In . SVG Version: 6.00 Build 0)  -->
<svg version="1.1" id="Layer_1" xmlns="http://www.w3.org/2000/svg" xmlns:xlink="http://www.w3.org/1999/xlink" x="0px" y="0px"
	 viewBox="0 0 470 125" style="enable-background:new 0 0 470 125;" xml:space="preserve">
<style type="text/css">
	.st0{fill:#FFFFFF;}
	.st1{fill-rule:evenodd;clip-rule:evenodd;fill:#FFFFFF;}
	.st2{fill:none;}
</style>
<g>
	<path class="st0" d="M162.7,82.9V61.3l-8.4,16.1h-3.4l-8.4-16.1v21.6h-6.3V50.3h6.8l9.6,18.5l9.7-18.5h6.8v32.6H162.7z"/>
	<path class="st0" d="M212.3,77.3v5.6h-22.6V50.3h22.2v5.6H196v7.9h13.7v5.1H196v8.5H212.3z"/>
	<path class="st0" d="M231,82.9V50.3h14.4c1.5,0,2.9,0.3,4.1,1c1.3,0.6,2.4,1.4,3.3,2.5c0.9,1,1.6,2.2,2.2,3.5
		c0.5,1.3,0.8,2.6,0.8,3.9c0,2.1-0.5,4-1.6,5.8c-1,1.7-2.5,3-4.3,3.7l7.4,12.3h-7.1L243.6,72h-6.2v10.9H231z M237.3,66.4h7.9
		c0.6,0,1.1-0.1,1.6-0.4c0.5-0.3,1-0.6,1.3-1.1c0.4-0.5,0.7-1.1,0.9-1.7c0.2-0.6,0.3-1.3,0.3-2.1c0-0.8-0.1-1.5-0.4-2.1
		c-0.2-0.6-0.6-1.2-1-1.7c-0.4-0.5-0.9-0.9-1.4-1.1c-0.5-0.3-1.1-0.4-1.6-0.4h-7.7V66.4z"/>
	<path class="st0" d="M273.3,66.4c0-2,0.4-3.9,1.1-5.9c0.7-2,1.8-3.7,3.2-5.2s3.1-2.8,5.1-3.7c2-0.9,4.3-1.4,6.8-1.4
		c3,0,5.6,0.7,7.8,2c2.2,1.3,3.8,3,4.9,5.1l-4.9,3.4c-0.4-0.9-0.9-1.7-1.6-2.3c-0.6-0.6-1.3-1.1-2-1.5c-0.7-0.4-1.4-0.6-2.2-0.8
		c-0.8-0.2-1.5-0.3-2.3-0.3c-1.6,0-3,0.3-4.2,1c-1.2,0.6-2.1,1.5-2.9,2.5c-0.8,1-1.3,2.2-1.7,3.5c-0.4,1.3-0.6,2.6-0.6,3.9
		c0,1.4,0.2,2.8,0.7,4.2c0.5,1.3,1.1,2.5,1.9,3.5c0.9,1,1.9,1.8,3,2.4c1.2,0.6,2.5,0.9,3.9,0.9c0.7,0,1.5-0.1,2.3-0.3
		c0.8-0.2,1.5-0.5,2.3-0.9c0.7-0.4,1.4-0.9,2-1.5c0.6-0.6,1.1-1.4,1.5-2.3l5.2,3c-0.5,1.2-1.3,2.3-2.2,3.3c-0.9,0.9-2,1.7-3.3,2.3
		c-1.2,0.6-2.5,1.1-3.9,1.5c-1.4,0.3-2.7,0.5-4,0.5c-2.3,0-4.5-0.5-6.4-1.5c-1.9-1-3.6-2.2-5-3.8c-1.4-1.6-2.5-3.4-3.3-5.4
		C273.7,70.5,273.3,68.4,273.3,66.4z"/>
	<path class="st0" d="M334.3,77.5c1.5,0,2.8-0.3,3.8-0.9c1-0.6,1.9-1.4,2.5-2.4c0.6-1,1.1-2.1,1.3-3.4c0.3-1.3,0.4-2.6,0.4-3.9V50.3
		h6.3v16.6c0,2.2-0.3,4.3-0.8,6.3c-0.5,2-1.4,3.7-2.5,5.1c-1.1,1.5-2.6,2.6-4.4,3.5c-1.8,0.9-4,1.3-6.5,1.3c-2.6,0-4.8-0.4-6.7-1.3
		c-1.8-0.9-3.3-2.1-4.4-3.6c-1.1-1.5-2-3.2-2.5-5.2c-0.5-2-0.7-4-0.7-6.1V50.3h6.3v16.6c0,1.4,0.1,2.7,0.4,4
		c0.3,1.3,0.7,2.4,1.3,3.4c0.6,1,1.5,1.8,2.5,2.4C331.6,77.2,332.9,77.5,334.3,77.5z"/>
	<path class="st0" d="M368.8,82.9V50.3h14.4c1.5,0,2.9,0.3,4.1,1c1.3,0.6,2.4,1.4,3.3,2.5c0.9,1,1.6,2.2,2.2,3.5
		c0.5,1.3,0.8,2.6,0.8,3.9c0,2.1-0.5,4-1.6,5.8c-1,1.7-2.5,3-4.3,3.7l7.4,12.3H388L381.4,72h-6.2v10.9H368.8z M375.1,66.4h7.9
		c0.6,0,1.1-0.1,1.6-0.4c0.5-0.3,1-0.6,1.3-1.1c0.4-0.5,0.7-1.1,0.9-1.7c0.2-0.6,0.3-1.3,0.3-2.1c0-0.8-0.1-1.5-0.4-2.1
		c-0.2-0.6-0.6-1.2-1-1.7c-0.4-0.5-0.9-0.9-1.4-1.1c-0.5-0.3-1.1-0.4-1.6-0.4h-7.7V66.4z"/>
	<path class="st0" d="M413.1,82.9V50.3h6.3v32.6H413.1z"/>
	<path class="st0" d="M453.9,83.1c-2.4,0-4.6-0.5-6.5-1.4c-1.9-0.9-3.6-2.2-5-3.7c-1.4-1.6-2.4-3.3-3.2-5.3c-0.8-2-1.1-4-1.1-6.1
		c0-2.2,0.4-4.3,1.2-6.2c0.8-2,1.9-3.7,3.4-5.3c1.4-1.5,3.1-2.7,5.1-3.6c2-0.9,4.1-1.4,6.4-1.4c2.4,0,4.5,0.5,6.4,1.5
		c2,0.9,3.6,2.2,5,3.8c1.4,1.6,2.4,3.3,3.2,5.3c0.8,2,1.1,4,1.1,6.1c0,2.2-0.4,4.3-1.2,6.2c-0.8,2-1.9,3.7-3.3,5.2
		c-1.4,1.5-3.1,2.7-5,3.6C458.3,82.7,456.2,83.1,453.9,83.1z M444.5,66.6c0,1.4,0.2,2.8,0.6,4.1c0.4,1.3,1,2.5,1.8,3.5
		c0.8,1,1.8,1.8,3,2.4c1.2,0.6,2.5,0.9,4,0.9c1.5,0,2.9-0.3,4-0.9c1.2-0.6,2.2-1.5,3-2.5c0.8-1,1.4-2.2,1.8-3.5
		c0.4-1.3,0.6-2.6,0.6-4c0-1.4-0.2-2.8-0.7-4.1c-0.4-1.3-1.1-2.5-1.9-3.5c-0.8-1-1.8-1.8-3-2.4c-1.2-0.6-2.5-0.9-4-0.9
		c-1.5,0-2.9,0.3-4.1,1c-1.2,0.6-2.2,1.4-3,2.5c-0.8,1-1.4,2.2-1.8,3.5C444.7,63.9,444.5,65.2,444.5,66.6z"/>
	<path class="st1" d="M14.3,103.4c0.7-1.9,1.3-3.7,1.9-5c3.5-6.6,11.4-10,13.9-9.5c0.2-0.6,0.5-1.1,0.9-1.5c-4.4-5.7-7-12.8-7-20.5
		c0-7,2.1-13.5,5.8-18.9c-0.3-1.2-0.4-2.4-0.3-3.7c0.1-3.1,1.3-6,3.2-8.5c-1.7,0.9-3.6,1.5-5.5,1.7c-3.2,0.3-5.2-0.2-6.5-1
		c-0.7-0.4-1.2-0.9-1.6-1.3l-0.1-0.1l-0.1-0.1l0,0c-0.2-0.2-0.4-0.4-0.6-0.6c-2.3,0-3.9-0.6-4.9-1.3c-0.3-0.2-0.6-0.4-0.8-0.6
		C5.2,42,0.9,53.9,0.9,66.8C0.9,80.7,5.9,93.5,14.3,103.4z M31.3,16.6c8-4.2,17.1-6.6,26.7-6.6c9.7,0,18.8,2.4,26.8,6.6
		c-1.2,1-3.2,2.4-5.5,3.8c-1.6,1-3.3,2-4.9,2.9c-3.7-4.2-9.2-7-15.3-7.3c-6.8-0.3-13,2.6-17.1,7.3c-1.7-0.9-3.6-2-5.4-3.1
		C34.4,18.9,32.5,17.6,31.3,16.6z M103.5,32.5c-0.3,0.3-0.6,0.6-1,0.8c-1.1,0.7-2.6,1.2-4.9,1.3c-0.2,0.2-0.4,0.3-0.6,0.6l0,0
		l-0.1,0.1l-0.1,0.1c-0.4,0.4-0.9,0.9-1.6,1.3c-1.4,0.8-3.3,1.3-6.5,1c-2.1-0.2-4.1-0.9-6-1.9c2.6,3.2,4,6.8,3.8,10.7
		c0,0.6-0.1,1.1-0.2,1.7c3.6,5.4,5.6,11.8,5.6,18.7c0,6.9-2.1,13.4-5.7,18.7c0.7,0.7,1.4,1.6,2,2.6c7.1,1.8,13.8,10.9,14.4,12.8
		c0.1,0.2,0.1,0.3,0.2,0.5l0.1,0.4c7.6-9.6,12.1-21.8,12.1-35C115,53.9,110.7,42.1,103.5,32.5z"/>
	<path class="st0" d="M39.3,113.6c-8.3-0.8-16.5-7.9-20-13.6c2.3-5,6.9-7.4,9.4-7.4c0,0,1.5,9.3,12.6,13.7c-6.6-4.7-8.7-11-8.7-14.3
		c1.3-2.7,3.7-2.8,5.6-1.5c2.7,6,11.7,11.3,22.9,14.6C58.5,107,45.5,114.1,39.3,113.6z"/>
	<path class="st0" d="M79.1,86.6c-5.9,15.7-19.3,27.3-35,29.2c28.4,7.2,39.8-21,40.9-26.9C83.7,85.9,80.5,86.1,79.1,86.6z"/>
	<path class="st0" d="M44,76.1c-0.4,3.1-1.7,10-3,12.9c1.2,2.1,3.7,4.2,6.6,6.2c0-2.1,0.8-6.2,3.6-10c-0.5,2.9-1.3,8.8-1,11.7
		c5.2,3.1,10.8,5.4,12.4,5.3c2.8-0.2,6.3-5.1,6.5-7.6c0.1-2.5-2-6.3-3.7-7.3c-0.7-0.4-2-0.6-3.6-0.8C56.8,85.8,48.8,84.9,44,76.1z"
		/>
	<path class="st0" d="M88.1,91.7c-2.5,14.5-14.2,22.4-19.9,24.9c14-3.6,20.6-12.4,22.7-18.2c0,8.7-6.4,12.3-7,12.9
		c1.8,0,10.2-5.2,13.1-12C96,95.9,91.1,92.8,88.1,91.7z"/>
	<path class="st1" d="M84.9,19.3c0.3-0.3,0.7-0.6,1-0.9c0.9-0.8,2.1-0.4,4.8,0.7c4,1.5,11.2,4.3,25.3,5.9
		c-3.9,4.1-23.7-0.4-28.5-2.2c-1.3,1.4-4,4.2-5.8,4.4c-1.9,0.2-3.8-0.9-4.3-1.8C80.6,23.5,82.9,21.2,84.9,19.3z M85.6,32.3
		c2.4,0.5,7.9,1.4,10.4,0.9c-0.8,1.4-4.3,3.4-7.8,2.2C85.4,34.5,85.6,32.3,85.6,32.3z M102.1,30.6c-2.7,0.3-5.4-0.1-7.8-0.6
		c0,0-0.8,0.9-3,2.1C96.2,32.7,100.8,32.4,102.1,30.6z M99.6,26.8c2.4,0.5,5.4,0.9,8.3,0.9c-1.7,2.6-7.1,2.3-12.6,1.2
		C98.1,28.3,99.6,26.8,99.6,26.8z M98.3,26.2c-2.9,0-8.6-1-10.5-2.1c0,0-1.2,1.5-3,2.7C89,28.4,94.7,28.8,98.3,26.2z M84.1,27.5
		c1.8,1,7.1,2,9.7,2c-1.8,2.1-9.7,3-11.7-0.4C83.8,28.1,84.1,27.5,84.1,27.5z"/>
	<path class="st1" d="M30.9,19.1L30.9,19.1c-0.3-0.3-0.7-0.6-1-0.9c-0.9-0.8-2.1-0.4-4.8,0.7c-4,1.5-11.2,4.3-25.3,5.9
		c3.9,4.1,23.7-0.4,28.5-2.2c1.3,1.4,4,4.2,5.8,4.4c1.9,0.2,3.8-0.9,4.3-1.8C35.2,23.2,32.9,20.9,30.9,19.1z M30.2,32
		c-2.4,0.5-7.9,1.4-10.4,0.9c0.8,1.4,4.3,3.4,7.8,2.2C30.4,34.2,30.2,32,30.2,32z M13.7,30.4c2.7,0.3,5.4-0.1,7.8-0.6
		c0,0,0.8,0.9,3,2.1C19.6,32.4,15,32.2,13.7,30.4z M16.2,26.5c-2.4,0.5-5.4,0.9-8.3,0.9c1.7,2.6,7.1,2.3,12.6,1.2
		C17.8,28,16.2,26.5,16.2,26.5z M17.5,26c2.9,0,8.6-1,10.5-2.1c0,0,1.2,1.5,3,2.7C26.8,28.2,21.1,28.6,17.5,26z M31.7,27.3
		c-1.8,1-7.1,2-9.7,2c1.8,2.1,9.7,3,11.7-0.4C32,27.8,31.7,27.3,31.7,27.3z"/>
	<path class="st1" d="M58.9,25.5c4.6,0.2,8.9,1.1,12.6,2.6c-2.7-4.7-8-8.1-14.2-8.4c-7.2-0.3-13.5,3.6-16.1,9.3
		C46.1,26.6,52.3,25.3,58.9,25.5z M84.7,46.8c-0.1,2.5-0.9,4.9-2.3,7.1c0.9-1.8,1.4-3.7,1.5-5.7c0.5-10.5-11.1-19.5-25.8-20
		c-11.2-0.4-21,4.1-25.3,10.9c3.8-7.6,14.1-12.7,26.1-12.3C73.6,27.4,85.2,36.3,84.7,46.8z"/>
	<path class="st0" d="M69.6,33.9c-6.6,3.4-17.8,1.4-22.6,0c0.7-0.4,1.7-0.7,2.8-1.1c0.6,1.7,9.2,3.5,13.3,1.3
		c-3.1,0.4-4.1-0.1-5.4-0.7c-0.7-0.3-1.4-0.7-2.5-0.9c-0.9-0.2-1.8-0.3-2.7-0.4C57.3,31.1,63.6,30.9,69.6,33.9z"/>
	<path class="st0" d="M72.8,36.3c0,5.9,0,6.8,3.3,11.1c0.2,0,0.3,0,0.5,0c-0.8-1.2-0.8-3.3-1.7-5.5c2.1,1.4,2.3,2.6,2.7,4.9
		C79.2,44.6,75.5,37.2,72.8,36.3z"/>
	<path class="st0" d="M41.4,45.4c0.4-1.1,0.4-1.9,0.1-3.9c-0.7,0.5-1.8,2.2-1.1,5.1c-4.1-0.2,0.3-10.2,3.3-11.1
		C43.7,40.9,43.7,42.1,41.4,45.4z"/>
	<path class="st0" d="M76.8,58.8c-1.4-2.8-1.5-6-0.1-8.5C80.6,49.8,76.9,53,76.8,58.8z"/>
	<path class="st0" d="M49.1,50L49.1,50c0.4,0.1,0.5,0.3,0.5,0.5c0,0.3-0.3,0.5-0.5,0.5c-0.3,0-0.5-0.3-0.5-0.5c0,0,0,0,0-0.1
		c0,0,0,0,0-0.1c0,0,0-0.1,0.1-0.1C48.8,50.1,49,50,49.1,50z"/>
	<path class="st0" d="M66.6,50.8c0-0.2,0.1-0.3,0.2-0.4c0.2,0,0.3-0.1,0.5-0.1c0.2,0.1,0.4,0.2,0.4,0.5c0,0.3-0.2,0.5-0.5,0.5
		C66.9,51.3,66.6,51.1,66.6,50.8z"/>
	<path class="st1" d="M40.9,48.6c3.5-4.8,4.2-6.9,4.4-13.5l0,0c6.1,1.8,18.5,4,26.4,0.2l0,0c-0.5,6.8,0.1,8.7,4.1,13.8
		c-1.3,3.4-1.3,7.3,0.1,10.7l0,0.3c0,7.9-7,19.7-12.4,21.5c-0.7,0.2-1.4,0.3-2.1,0.4c-0.2,0-0.4,0-0.5,0.1c-1.6,0.2-3.3,0.2-4.9,0
		c-0.9-0.1-1.8-0.1-2.6-0.4C47.7,79.9,40.8,68,40.8,60.1l-0.1-0.9C42,55.9,42.1,52,40.9,48.6z M49.3,48.7c-2.1,0-3.8,1.1-4.4,2.6
		l0.8,0c0.4-0.5,1-0.9,1.7-1.2c0,0.1,0,0.2,0,0.3c-0.1,1.1,0.8,2,2,2c1.1,0.1,2-0.7,2.2-1.7c0.3,0.2,0.6,0.5,0.8,0.8l1.9,0.1
		c-0.5-1.7-2.3-3-4.5-3.1l-0.1,0l0,0C49.4,48.7,49.4,48.7,49.3,48.7z M72.4,51.8c-0.6-1.5-2.8-2.7-4.9-2.8c0,0-0.1,0-0.1,0l-0.1,0
		l0,0l-0.1,0c-2.2,0.1-4,1.4-4.5,3l0.9,0c0.4-0.5,1.1-1,1.7-0.9c0.1,1,1,1.8,2.1,1.7c1.1,0,2-1,2-2c0.8,0.1,1.2,0.3,1.8,1L72.4,51.8
		z M55.6,48.4l0.4,3.4h-1l-0.9-2.5c-1.1-0.2-2-0.5-2.8-0.7c-2.6-0.7-4.2-1.2-6.8-0.2l-0.8-0.9l0.3-0.2
		C47.5,45.6,48.1,45.3,55.6,48.4z M61.1,52l0.4-3.4c7.6-3,8.1-2.7,11.6-1.1l0.3,0.2l-0.8,0.9c-2.6-1-4.2-0.5-6.8,0.2
		c-0.3,0.1-0.6,0.2-1,0.3c-0.6,0.2-1.2,0.3-1.9,0.5L62.1,52H61.1z M56.5,61.4c0,0,0.7,0.4,2.2,0.4c1.5,0,2.2-0.4,2.2-0.4
		c0.2,0.6,2,1.8,3,2.4h-2c0,0-0.8-0.6-1.5-0.6c-1.1,0.5-1.7,2.1-1.7,2.1s-0.6-1.6-1.7-2.1c-0.6,0-1.5,0.6-1.5,0.6h-2
		C54.5,63.2,56.4,61.9,56.5,61.4z M55.8,72.5c-0.4,0.6-1,1.2-1.5,1.6l1.6-0.1c0,0,1.1,0.6,2.8,0.6c1.7,0,2.8-0.6,2.8-0.6l1.6,0.1
		c-0.4-0.3-0.9-0.8-1.3-1.3c-0.1-0.1-0.1-0.2-0.2-0.3c-0.2,0.2-1.2,0.5-2.9,0.5C57,73,56.1,72.7,55.8,72.5z M48.9,71.2
		c-0.7-0.8-0.8-2.4,0.4-3.8c0.8-1,3.2-1.6,5.1-2.1l0,0c0.4-0.1,0.8-0.2,1.2-0.3c0.3-0.1,0.5-0.1,0.7-0.2c1.4,1.3,4.2,1.3,5.6,0
		c0.4,0.2,1.1,0.3,1.9,0.5l0,0c1.9,0.5,4.3,1.1,5.1,2.1c1.2,1.4,1.1,3,0.4,3.8c-1.3-0.5-3.2-1.2-4.3-1.4c-2.9,1.2-8.7,1.2-11.6,0
		C52.1,70,50.2,70.7,48.9,71.2z"/>
	<path class="st0" d="M40,58c1.2-2.9,1.2-6.1-0.3-8.6C35.7,49,39.5,52.1,40,58z"/>
	<path class="st0" d="M39.3,113.6c-8.3-0.8-16.5-7.9-20-13.6c2.3-5,6.9-7.4,9.4-7.4c0,0,1.5,9.3,12.6,13.7c-6.6-4.7-8.7-11-8.7-14.3
		c1.3-2.7,3.7-2.8,5.6-1.5c2.7,6,11.7,11.3,22.9,14.6C58.5,107,45.5,114.1,39.3,113.6z"/>
	<path class="st0" d="M79.1,86.6c-5.9,15.7-19.3,27.3-35,29.2c28.4,7.2,39.8-21,40.9-26.9C83.7,85.9,80.5,86.1,79.1,86.6z"/>
	<path class="st0" d="M44,76.1c-0.4,3.1-1.7,10-3,12.9c1.2,2.1,3.7,4.2,6.6,6.2c0-2.1,0.8-6.2,3.6-10c-0.5,2.9-1.3,8.8-1,11.7
		c5.2,3.1,10.8,5.4,12.4,5.3c2.8-0.2,6.3-5.1,6.5-7.6c0.1-2.5-2-6.3-3.7-7.3c-0.7-0.4-2-0.6-3.6-0.8C56.8,85.8,48.8,84.9,44,76.1z"
		/>
	<path class="st0" d="M88.1,91.7c-2.5,14.5-14.2,22.4-19.9,24.9c14-3.6,20.6-12.4,22.7-18.2c0,8.7-6.4,12.3-7,12.9
		c1.8,0,10.2-5.2,13.1-12C96,95.9,91.1,92.8,88.1,91.7z"/>
	<path class="st1" d="M84.9,19.3c0.3-0.3,0.7-0.6,1-0.9c0.9-0.8,2.1-0.4,4.8,0.7c4,1.5,11.2,4.3,25.3,5.9
		c-3.9,4.1-23.7-0.4-28.5-2.2c-1.3,1.4-4,4.2-5.8,4.4c-1.9,0.2-3.8-0.9-4.3-1.8C80.6,23.5,82.9,21.2,84.9,19.3z M85.6,32.3
		c2.4,0.5,7.9,1.4,10.4,0.9c-0.8,1.4-4.3,3.4-7.8,2.2C85.4,34.5,85.6,32.3,85.6,32.3z M102.1,30.6c-2.7,0.3-5.4-0.1-7.8-0.6
		c0,0-0.8,0.9-3,2.1C96.2,32.7,100.8,32.4,102.1,30.6z M99.6,26.8c2.4,0.5,5.4,0.9,8.3,0.9c-1.7,2.6-7.1,2.3-12.6,1.2
		C98.1,28.3,99.6,26.8,99.6,26.8z M98.3,26.2c-2.9,0-8.6-1-10.5-2.1c0,0-1.2,1.5-3,2.7C89,28.4,94.7,28.8,98.3,26.2z M84.1,27.5
		c1.8,1,7.1,2,9.7,2c-1.8,2.1-9.7,3-11.7-0.4C83.8,28.1,84.1,27.5,84.1,27.5z"/>
	<path class="st1" d="M30.9,19.1L30.9,19.1c-0.3-0.3-0.7-0.6-1-0.9c-0.9-0.8-2.1-0.4-4.8,0.7c-4,1.5-11.2,4.3-25.3,5.9
		c3.9,4.1,23.7-0.4,28.5-2.2c1.3,1.4,4,4.2,5.8,4.4c1.9,0.2,3.8-0.9,4.3-1.8C35.2,23.2,32.9,20.9,30.9,19.1z M30.2,32
		c-2.4,0.5-7.9,1.4-10.4,0.9c0.8,1.4,4.3,3.4,7.8,2.2C30.4,34.2,30.2,32,30.2,32z M13.7,30.4c2.7,0.3,5.4-0.1,7.8-0.6
		c0,0,0.8,0.9,3,2.1C19.6,32.4,15,32.2,13.7,30.4z M16.2,26.5c-2.4,0.5-5.4,0.9-8.3,0.9c1.7,2.6,7.1,2.3,12.6,1.2
		C17.8,28,16.2,26.5,16.2,26.5z M17.5,26c2.9,0,8.6-1,10.5-2.1c0,0,1.2,1.5,3,2.7C26.8,28.2,21.1,28.6,17.5,26z M31.7,27.3
		c-1.8,1-7.1,2-9.7,2c1.8,2.1,9.7,3,11.7-0.4C32,27.8,31.7,27.3,31.7,27.3z"/>
	<path class="st1" d="M58.9,25.5c4.6,0.2,8.9,1.1,12.6,2.6c-2.7-4.7-8-8.1-14.2-8.4c-7.2-0.3-13.5,3.6-16.1,9.3
		C46.1,26.6,52.3,25.3,58.9,25.5z M84.7,46.8c-0.1,2.5-0.9,4.9-2.3,7.1c0.9-1.8,1.4-3.7,1.5-5.7c0.5-10.5-11.1-19.5-25.8-20
		c-11.2-0.4-21,4.1-25.3,10.9c3.8-7.6,14.1-12.7,26.1-12.3C73.6,27.4,85.2,36.3,84.7,46.8z"/>
	<path class="st0" d="M69.6,33.9c-6.6,3.4-17.8,1.4-22.6,0c0.7-0.4,1.7-0.7,2.8-1.1c0.6,1.7,9.2,3.5,13.3,1.3
		c-3.1,0.4-4.1-0.1-5.4-0.7c-0.7-0.3-1.4-0.7-2.5-0.9c-0.9-0.2-1.8-0.3-2.7-0.4C57.3,31.1,63.6,30.9,69.6,33.9z"/>
	<path class="st0" d="M72.8,36.3c0,5.9,0,6.8,3.3,11.1c0.2,0,0.3,0,0.5,0c-0.8-1.2-0.8-3.3-1.7-5.5c2.1,1.4,2.3,2.6,2.7,4.9
		C79.2,44.6,75.5,37.2,72.8,36.3z"/>
	<path class="st0" d="M41.4,45.4c0.4-1.1,0.4-1.9,0.1-3.9c-0.7,0.5-1.8,2.2-1.1,5.1c-4.1-0.2,0.3-10.2,3.3-11.1
		C43.7,40.9,43.7,42.1,41.4,45.4z"/>
	<path class="st0" d="M76.8,58.8c-1.4-2.8-1.5-6-0.1-8.5C80.6,49.8,76.9,53,76.8,58.8z"/>
	<path class="st0" d="M49.1,50L49.1,50c0.4,0.1,0.5,0.3,0.5,0.5c0,0.3-0.3,0.5-0.5,0.5c-0.3,0-0.5-0.3-0.5-0.5c0,0,0,0,0-0.1
		c0,0,0,0,0-0.1c0,0,0-0.1,0.1-0.1C48.8,50.1,49,50,49.1,50z"/>
	<path class="st0" d="M66.6,50.8c0-0.2,0.1-0.3,0.2-0.4c0.2,0,0.3-0.1,0.5-0.1c0.2,0.1,0.4,0.2,0.4,0.5c0,0.3-0.2,0.5-0.5,0.5
		C66.9,51.3,66.6,51.1,66.6,50.8z"/>
	<path class="st1" d="M40.9,48.6c3.5-4.8,4.2-6.9,4.4-13.5l0,0c6.1,1.8,18.5,4,26.4,0.2l0,0c-0.5,6.8,0.1,8.7,4.1,13.8
		c-1.3,3.4-1.3,7.3,0.1,10.7l0,0.3c0,7.9-7,19.7-12.4,21.5c-0.7,0.2-1.4,0.3-2.1,0.4c-0.2,0-0.4,0-0.5,0.1c-1.6,0.2-3.3,0.2-4.9,0
		c-0.9-0.1-1.8-0.1-2.6-0.4C47.7,79.9,40.8,68,40.8,60.1l-0.1-0.9C42,55.9,42.1,52,40.9,48.6z M49.3,48.7c-2.1,0-3.8,1.1-4.4,2.6
		l0.8,0c0.4-0.5,1-0.9,1.7-1.2c0,0.1,0,0.2,0,0.3c-0.1,1.1,0.8,2,2,2c1.1,0.1,2-0.7,2.2-1.7c0.3,0.2,0.6,0.5,0.8,0.8l1.9,0.1
		c-0.5-1.7-2.3-3-4.5-3.1l-0.1,0l0,0C49.4,48.7,49.4,48.7,49.3,48.7z M72.4,51.8c-0.6-1.5-2.8-2.7-4.9-2.8c0,0-0.1,0-0.1,0l-0.1,0
		l0,0l-0.1,0c-2.2,0.1-4,1.4-4.5,3l0.9,0c0.4-0.5,1.1-1,1.7-0.9c0.1,1,1,1.8,2.1,1.7c1.1,0,2-1,2-2c0.8,0.1,1.2,0.3,1.8,1L72.4,51.8
		z M55.6,48.4l0.4,3.4h-1l-0.9-2.5c-1.1-0.2-2-0.5-2.8-0.7c-2.6-0.7-4.2-1.2-6.8-0.2l-0.8-0.9l0.3-0.2
		C47.5,45.6,48.1,45.3,55.6,48.4z M61.1,52l0.4-3.4c7.6-3,8.1-2.7,11.6-1.1l0.3,0.2l-0.8,0.9c-2.6-1-4.2-0.5-6.8,0.2
		c-0.3,0.1-0.6,0.2-1,0.3c-0.6,0.2-1.2,0.3-1.9,0.5L62.1,52H61.1z M56.5,61.4c0,0,0.7,0.4,2.2,0.4c1.5,0,2.2-0.4,2.2-0.4
		c0.2,0.6,2,1.8,3,2.4h-2c0,0-0.8-0.6-1.5-0.6c-1.1,0.5-1.7,2.1-1.7,2.1s-0.6-1.6-1.7-2.1c-0.6,0-1.5,0.6-1.5,0.6h-2
		C54.5,63.2,56.4,61.9,56.5,61.4z M55.8,72.5c-0.4,0.6-1,1.2-1.5,1.6l1.6-0.1c0,0,1.1,0.6,2.8,0.6c1.7,0,2.8-0.6,2.8-0.6l1.6,0.1
		c-0.4-0.3-0.9-0.8-1.3-1.3c-0.1-0.1-0.1-0.2-0.2-0.3c-0.2,0.2-1.2,0.5-2.9,0.5C57,73,56.1,72.7,55.8,72.5z M48.9,71.2
		c-0.7-0.8-0.8-2.4,0.4-3.8c0.8-1,3.2-1.6,5.1-2.1l0,0c0.4-0.1,0.8-0.2,1.2-0.3c0.3-0.1,0.5-0.1,0.7-0.2c1.4,1.3,4.2,1.3,5.6,0
		c0.4,0.2,1.1,0.3,1.9,0.5l0,0c1.9,0.5,4.3,1.1,5.1,2.1c1.2,1.4,1.1,3,0.4,3.8c-1.3-0.5-3.2-1.2-4.3-1.4c-2.9,1.2-8.7,1.2-11.6,0
		C52.1,70,50.2,70.7,48.9,71.2z"/>
	<path class="st0" d="M40,58c1.2-2.9,1.2-6.1-0.3-8.6C35.7,49,39.5,52.1,40,58z"/>
	<path class="st0" d="M136.1,105.9c0-1,0.2-2,0.5-3c0.4-1,0.9-1.9,1.6-2.7c0.7-0.8,1.6-1.4,2.6-1.9c1-0.5,2.2-0.7,3.5-0.7
		c1.6,0,2.9,0.3,4,1c1.1,0.7,2,1.6,2.5,2.7l-2.5,1.7c-0.2-0.5-0.5-0.9-0.8-1.2c-0.3-0.3-0.7-0.6-1-0.8c-0.4-0.2-0.7-0.3-1.1-0.4
		c-0.4-0.1-0.8-0.1-1.2-0.1c-0.8,0-1.5,0.2-2.2,0.5c-0.6,0.3-1.1,0.8-1.5,1.3c-0.4,0.5-0.7,1.1-0.9,1.8c-0.2,0.7-0.3,1.3-0.3,2
		c0,0.7,0.1,1.5,0.4,2.2c0.2,0.7,0.6,1.3,1,1.8c0.4,0.5,1,0.9,1.6,1.3c0.6,0.3,1.3,0.5,2,0.5c0.4,0,0.8,0,1.2-0.1
		c0.4-0.1,0.8-0.2,1.2-0.5c0.4-0.2,0.7-0.5,1-0.8c0.3-0.3,0.6-0.7,0.8-1.2l2.7,1.5c-0.3,0.6-0.7,1.2-1.2,1.7
		c-0.5,0.5-1.1,0.9-1.7,1.2c-0.6,0.3-1.3,0.6-2,0.8c-0.7,0.2-1.4,0.3-2.1,0.3c-1.2,0-2.3-0.3-3.3-0.8c-1-0.5-1.9-1.2-2.6-2
		c-0.7-0.8-1.3-1.8-1.7-2.8C136.3,108.1,136.1,107,136.1,105.9z"/>
	<path class="st0" d="M171.2,114.5v-11.2l-4.4,8.3H165l-4.4-8.3v11.2h-3.3V97.6h3.5l5,9.6l5-9.6h3.5v16.9H171.2z"/>
	<path class="st0" d="M190.7,102c-0.1-0.1-0.3-0.3-0.6-0.5c-0.3-0.2-0.6-0.4-1.1-0.5c-0.4-0.2-0.9-0.3-1.4-0.5
		c-0.5-0.1-1-0.2-1.5-0.2c-0.9,0-1.6,0.2-2,0.5c-0.4,0.3-0.7,0.8-0.7,1.4c0,0.3,0.1,0.6,0.2,0.9c0.2,0.2,0.4,0.4,0.7,0.6
		c0.3,0.2,0.7,0.3,1.2,0.5c0.5,0.1,1.1,0.3,1.7,0.5c0.8,0.2,1.6,0.5,2.2,0.7c0.7,0.3,1.3,0.6,1.7,1c0.5,0.4,0.8,0.8,1.1,1.4
		c0.3,0.5,0.4,1.2,0.4,1.9c0,0.9-0.2,1.7-0.5,2.3c-0.3,0.6-0.8,1.1-1.4,1.5c-0.6,0.4-1.2,0.7-2,0.9c-0.7,0.2-1.5,0.3-2.4,0.3
		c-1.3,0-2.5-0.2-3.8-0.6c-1.2-0.4-2.3-0.9-3.3-1.6l1.5-2.8c0.1,0.1,0.4,0.3,0.8,0.6c0.4,0.2,0.8,0.5,1.3,0.7
		c0.5,0.2,1.1,0.4,1.7,0.6c0.6,0.2,1.3,0.2,1.9,0.2c1.8,0,2.7-0.6,2.7-1.7c0-0.4-0.1-0.7-0.3-0.9c-0.2-0.3-0.5-0.5-0.9-0.7
		c-0.4-0.2-0.8-0.4-1.4-0.5c-0.5-0.2-1.1-0.3-1.8-0.5c-0.8-0.2-1.5-0.5-2.1-0.7c-0.6-0.3-1.1-0.6-1.5-0.9c-0.4-0.4-0.7-0.8-0.9-1.2
		c-0.2-0.5-0.3-1-0.3-1.7c0-0.9,0.2-1.6,0.5-2.3c0.3-0.7,0.8-1.2,1.3-1.7c0.6-0.4,1.2-0.8,2-1c0.7-0.2,1.5-0.4,2.4-0.4
		c1.2,0,2.3,0.2,3.3,0.6c1,0.4,1.9,0.8,2.6,1.3L190.7,102z"/>
</g>
<rect x="-0.2" class="st2" width="470" height="125"/>
</svg>
